<svg width="1em" height="1em" viewBox="0 0 16 16" fill="none" xmlns="http://www.w3.org/2000/svg">
    <style type="text/css">
        @keyframes spin {
            0% {
                transform: rotate(0)
            }

            /* 
            25% {
                transform: rotate(120deg)
            }

            50% {
                transform: rotate(210deg)
            }

            75% {
                transform: rotate(305deg)
            } */

            100% {
                transform: rotate(360deg)
            }
        }

        #spin {
            animation: spin 1s linear infinite;
            transform-origin: center center;
        }
    </style>
    <g id="spin">
        <path fill-rule="evenodd" clip-rule="evenodd"
            d="M8 1.5C4.41015 1.5 1.5 4.41015 1.5 8C1.5 11.5899 4.41015 14.5 8 14.5L8 12.5C5.51472 12.5 3.5 10.4853 3.5 8C3.5 5.51472 5.51472 3.5 8 3.5V1.5Z"
            fill="url(#paint0_linear_3733_33491)" />
        <path fill-rule="evenodd" clip-rule="evenodd"
            d="M8 14.5C11.5899 14.5 14.5 11.5899 14.5 8C14.5 4.41015 11.5899 1.5 8 1.5V3.5C10.4853 3.5 12.5 5.51472 12.5 8C12.5 10.4853 10.4853 12.5 8 12.5V14.5Z"
            fill="url(#paint1_linear_3733_33491)" />
        <defs>
            <linearGradient id="paint0_linear_3733_33491" x1="8" y1="11.5" x2="8" y2="1.5"
                gradientUnits="userSpaceOnUse">
                <stop stop-color="#0084FF" stop-opacity="0.5" />
                <stop offset="1" stop-color="#0084FF" />
            </linearGradient>
            <linearGradient id="paint1_linear_3733_33491" x1="14.5" y1="13.5" x2="14.5" y2="1.5"
                gradientUnits="userSpaceOnUse">
                <stop stop-color="#0084FF" stop-opacity="0.5" />
                <stop offset="1" stop-color="#0084FF" stop-opacity="0" />
            </linearGradient>
        </defs>
    </g>
</svg>